<svg xmlns="http://www.w3.org/2000/svg" xmlns:xlink="http://www.w3.org/1999/xlink" xml:space="preserve" viewBox="0 0 32 32">
  <style>
    .owl {
      fill: #1B1D1E;
    }

    @media (prefers-color-scheme: dark) {
      .owl {
        fill: #F8F8F2;
      }
    }
  </style>
  <path class="owl" d="M3 5c-3 2.974-3 6-3 11 0 4 3 9 6 11s6 2 9 2 6 0 9-2 6-7.018 6-11c0-5.018 0-8-3-11s-8-3-12-3c-3.997 0-8.987.013-12 3Zm6 3c2 0 4 2 4 4s-2 4-4 4-4-2-4-4 2-4 4-4Zm12 0c2 0 4 2 4 4s-2 4-4 4-4-2-4-4 2-4 4-4zM9 10c-1 0-2 1-2 2s1.006 2 2 2c1 0 2-1 2-2s-1-2-2-2zm12 0c-1 0-2 1-2 2s1 1.992 2 1.992S23 13 23 12s-1-2-2-2zm-8 8c1-1 3-1 4 0s-1 6-2 6-3-5-2-6z"/>
</svg>
