<svg xmlns="http://www.w3.org/2000/svg" xml:space="preserve" id="svg1" version="1.1" viewBox="0 0 32 32">
    <style>
    .owl {
        fill: #1B1D1E;
    }
    @media (prefers-color-scheme: dark) {
        .owl {
        fill: #F8F8F2;
        }
    }
    </style>
    <path id="path1" d="M3.2 4.8C0 7.97 0 11.2 0 16.53c0 4.27 3.2 9.6 6.4 11.74 3.2 2.13 6.4 2.13 9.6 2.13 3.2 0 6.4 0 9.6-2.13 3.2-2.14 6.4-7.49 6.4-11.74C32 11.18 32 8 28.8 4.8 25.6 1.6 20.27 1.6 16 1.6c-4.26 0-9.59.01-12.8 3.2ZM9.6 8a4.59 4.59 0 0 1 4.27 4.27 4.59 4.59 0 0 1-4.27 4.26 4.59 4.59 0 0 1-4.27-4.26A4.59 4.59 0 0 1 9.6 8Zm12.8 0a4.59 4.59 0 0 1 4.27 4.27 4.59 4.59 0 0 1-4.27 4.26 4.59 4.59 0 0 1-4.27-4.26A4.59 4.59 0 0 1 22.4 8ZM9.6 10.13a2.3 2.3 0 0 0-2.13 2.14c0 1.06 1.07 2.13 2.13 2.13a2.3 2.3 0 0 0 2.13-2.13 2.3 2.3 0 0 0-2.13-2.14Zm12.8 0a2.3 2.3 0 0 0-2.13 2.14c0 1.06 1.06 2.12 2.13 2.12 1.07 0 2.13-1.06 2.13-2.12a2.3 2.3 0 0 0-2.13-2.14zm-8.53 8.54a3.24 3.24 0 0 1 4.26 0c1.07 1.06-1.06 6.4-2.13 6.4-1.07 0-3.2-5.34-2.13-6.4z" class="owl" style="stroke-width:1.06667"/>
</svg>
