<svg version="1.1" xmlns="http://www.w3.org/2000/svg" viewBox="0 0 129 46" fill="#2A2A2A">
    <symbol id="key-1u" width="8" height="8" viewBox="0 0 8 8">
        <path d="M1,0A1,1 0 0 0 0,1V7A1,1 0 0 0 1,8H7A1,1 0 0 0 8,7V1A1,1 0 0 0 7,0Z" fill="inherit" />
        <path d="M4,1A3,3 0 0 0 1,4A3,3 0 0 0 4,7A3,3 0 0 0 7,4A3,3 0 0 0 4,1Z" fill="rgba(0,0,0,0.15)" />
    </symbol>
    <symbol id="display-1-3" width="8" height="26" viewBox="0 0 8 26">
        <path d="M0,0V30H8V0Z" fill="#111" />
    </symbol>

    <g id="keyboard-left">
        <path d="M2,0A2,2 0 0 0 0,2V44A2,2 0 0 0 2,46H62A2,2 0,0,0 64,44V2A2,2 0 0 0 62,0Z" fill="inherit" />

        <g id="keyrow-r1l" fill="#191919">
            <use href="#key-1u" x="1" y="1" />
            <use href="#key-1u" x="10" y="1" />
            <use href="#key-1u" x="19" y="1" />
            <use href="#key-1u" x="28" y="1" />
            <use href="#key-1u" x="37" y="1" />
            <use href="#key-1u" x="46" y="1" />
        </g>

        <use href="#keyrow-r1l" y="9" />
        <use href="#keyrow-r1l" y="18" />
        <g id="keyrow-r4l" fill="#191919">
            <use href="#keyrow-r1l" y="27" />
            <use href="#key-1u" x="55" y="28" />
        </g>
        <use href="#keyrow-r4l" y="9" />

        <use href="#display-1-3" x="55" y="1" />
    </g>

    <use href="#keyboard-left" x="-129" transform="scale(-1, 1)" />
</svg>
